<svg id="Layer_1" enable-background="new 0 0 512.01 512.01" height="512" viewBox="0 0 512.01 512.01" width="512" xmlns="http://www.w3.org/2000/svg"><g><g><path d="m437.025 74.981c-48.352-48.353-112.64-74.981-181.02-74.981s-132.668 26.628-181.019 74.981c-48.353 48.352-74.981 112.64-74.981 181.02 0 76.337 33.412 147.579 91.865 196.428l-5.844 21.81c-2.068 7.718-.997 15.799 3.018 22.752s10.477 11.922 18.195 13.99c2.591.694 5.194 1.026 7.758 1.026 13.244-.001 25.397-8.852 28.984-22.238l.837-3.124c34.478 16.619 72.666 25.357 111.187 25.357 38.417 0 76.595-8.756 111.174-25.409l.851 3.176c2.068 7.719 7.036 14.181 13.989 18.195 4.64 2.678 9.78 4.047 14.98 4.047 2.594 0 5.204-.341 7.772-1.029 15.978-4.281 25.494-20.763 21.214-36.741l-5.843-21.805c27.774-23.228 50.665-52.542 66.403-85.139 16.656-34.499 25.46-72.984 25.46-111.294.001-68.382-26.628-132.67-74.98-181.022zm-324.611 416.682c-2.559-.686-4.707-2.345-6.051-4.671-1.343-2.327-1.705-5.017-1.02-7.575l41.41-154.548c.686-2.558 2.345-4.707 4.672-6.05 1.558-.899 3.277-1.359 5.013-1.359.856 0 1.717.112 2.563.339h.001c2.559.686 4.708 2.345 6.051 4.672 1.344 2.327 1.706 5.017 1.021 7.575l-41.411 154.548c-1.428 5.323-6.922 8.493-12.249 7.069zm96.271-243.375-2.588 9.659c-1.428 5.327-6.924 8.495-12.247 7.071l-19.312-5.175c-.002-.001-.005-.002-.007-.002s-.005-.001-.007-.001l-19.312-5.175c-2.558-.686-4.706-2.345-6.05-4.671-1.344-2.327-1.706-5.017-1.021-7.576l2.588-9.659zm47.32 243.713c-36.794 0-73.252-8.642-105.911-25.049l12.228-45.634c28.486 16.182 60.609 24.682 93.683 24.682 33.025 0 65.142-8.506 93.678-24.701l12.219 45.602c-32.767 16.441-69.214 25.1-105.897 25.1zm88.037-130.391c-2.562.685-5.25.323-7.576-1.02s-3.985-3.492-4.671-6.051l-31.059-115.911c-3.439-12.837-1.644-26.298 5.058-37.905 4.989-8.641 12.229-15.442 20.899-19.772l46.327 172.895zm55.554 130.053c-2.562.686-5.251.323-7.577-1.02s-3.985-3.492-4.671-6.051l-28.47-106.251 19.32-5.177 28.47 106.251c1.426 5.326-1.746 10.82-7.072 12.248zm14.79-60.714-13.838-51.645c29.348-34.389 45.458-77.974 45.458-123.303 0-86.926-58.753-162.632-142.875-184.104-5.356-1.367-10.798 1.866-12.163 7.216-1.366 5.351 1.865 10.797 7.216 12.163 75.26 19.21 127.822 86.948 127.822 164.726 0 35.799-11.234 70.38-31.926 99.162l-50.917-190.02c-1.43-5.334-6.914-8.503-12.247-7.071-37.283 9.99-59.487 48.449-49.497 85.732l31.059 115.911c2.067 7.719 7.036 14.181 13.989 18.195 3.945 2.278 8.252 3.608 12.65 3.956l5.197 19.394c-26.631 16.205-57.014 24.741-88.308 24.741-31.35 0-61.741-8.53-88.313-24.723l17.7-66.057c2.068-7.718.996-15.798-3.018-22.751-2.278-3.945-5.344-7.249-8.98-9.749l5.62-20.972 9.66 2.588c2.591.694 5.193 1.025 7.757 1.025 13.244 0 25.397-8.852 28.984-22.238l5.157-19.248c.007-.024.014-.047.02-.071.007-.024.013-.048.019-.072l15.511-57.884c1.43-5.335-1.736-10.818-7.071-12.248-5.336-1.43-10.817 1.737-12.247 7.071l-12.941 48.297-19.318-5.176 12.941-48.297c1.43-5.335-1.736-10.818-7.071-12.248-5.337-1.432-10.817 1.737-12.247 7.071l-12.941 48.297-19.319-5.177 12.94-48.296c1.43-5.335-1.736-10.818-7.071-12.248-5.337-1.431-10.817 1.737-12.247 7.071l-15.502 57.855c-.01.033-.019.066-.027.1-.009.034-.018.067-.026.101l-5.149 19.218c-2.068 7.719-.997 15.799 3.019 22.753 4.015 6.953 10.476 11.921 18.194 13.989l9.66 2.588-5.62 20.972c-4.399.347-8.706 1.675-12.65 3.953-6.954 4.015-11.922 10.477-13.99 18.195l-9.506 35.476c-20.691-28.769-31.925-63.355-31.925-99.167 0-77.775 52.56-145.512 127.815-164.724 5.352-1.366 8.582-6.812 7.216-12.163s-6.807-8.578-12.163-7.216c-84.119 21.475-142.868 97.18-142.868 184.103 0 45.345 16.109 88.939 45.457 123.306l-13.835 51.632c-49.504-44.758-77.623-107.705-77.623-174.938-.004-130.13 105.866-236 235.997-236s236.001 105.87 236.001 236.001c0 67.303-28.117 130.245-77.62 174.948z"/><path d="m256.005 66.001h-.007c-5.522 0-9.996 4.477-9.996 10s4.48 10 10.003 10 10-4.477 10-10-4.477-10-10-10z"/></g></g></svg>